<?xml version="1.0" standalone="no"?>
<!DOCTYPE svg PUBLIC "-//W3C//DTD SVG 20010904//EN"
 "http://www.w3.org/TR/2001/REC-SVG-20010904/DTD/svg10.dtd">
<svg version="1.0" xmlns="http://www.w3.org/2000/svg"
 width="100.000000pt" height="100.000000pt" viewBox="0 0 100.000000 100.000000"
 preserveAspectRatio="xMidYMid meet">
<metadata>
Created by potrace 1.14, written by Peter Selinger 2001-2017
</metadata>
<g transform="translate(0.000000,100.000000) scale(0.100000,-0.100000)"
fill="#000000" stroke="none">
<path d="M1 838 l0 -163 79 155 c43 85 79 158 79 163 1 4 -35 7 -79 7 l-80 0
1 -162z"/>
<path d="M245 920 l80 -81 6 68 c4 49 6 25 7 -84 l2 -153 162 0 163 0 -159
159 c-88 88 -163 158 -168 155 -4 -3 -8 0 -8 5 0 7 -31 11 -82 11 l-83 0 80
-80z"/>
<path d="M830 920 c85 -43 158 -79 163 -79 4 -1 7 35 7 79 l0 80 -162 -1 -163
0 155 -79z"/>
<path d="M670 827 l0 -157 80 0 80 0 -76 153 c-42 83 -78 154 -80 156 -2 2 -4
-66 -4 -152z"/>
<path d="M170 750 l-155 -79 158 0 157 -1 0 80 c0 44 -1 80 -2 79 -2 0 -73
-36 -158 -79z"/>
<path d="M915 750 l-80 -80 83 0 82 0 0 80 c0 44 -1 80 -3 80 -1 0 -38 -36
-82 -80z"/>
<path d="M165 500 l-160 -160 163 0 162 0 0 160 c0 88 -1 160 -3 160 -1 0 -74
-72 -162 -160z"/>
<path d="M340 500 l0 -160 160 0 160 0 0 160 0 160 -160 0 -160 0 0 -160z
m240 0 l0 -80 -80 0 -80 0 0 80 0 80 80 0 80 0 0 -80z"/>
<path d="M670 498 l0 -163 160 160 c88 88 160 161 160 162 0 2 -72 3 -160 3
l-160 0 0 -162z"/>
<path d="M0 248 l0 -83 80 80 c44 44 80 81 80 82 0 2 -36 3 -80 3 l-80 0 0
-82z"/>
<path d="M246 178 c42 -84 78 -155 80 -157 2 -2 4 66 4 152 l0 157 -80 0 -80
0 76 -152z"/>
<path d="M495 170 c88 -88 161 -160 162 -160 2 0 3 72 3 160 l0 160 -162 0
-163 0 160 -160z"/>
<path d="M670 250 l0 -80 153 76 c83 42 154 78 156 80 2 2 -66 4 -152 4 l-157
0 0 -80z"/>
<path d="M917 165 c-42 -85 -77 -157 -77 -160 0 -3 36 -5 80 -5 l80 0 0 160
c0 88 -1 160 -3 160 -1 0 -37 -70 -80 -155z"/>
<path d="M0 80 l0 -80 163 1 162 0 -155 79 c-85 43 -158 79 -162 79 -5 1 -8
-35 -8 -79z"/>
<path d="M670 80 l0 -80 82 0 83 0 -80 80 c-44 44 -81 80 -82 80 -2 0 -3 -36
-3 -80z"/>
</g>
</svg>
